<svg xmlns="http://www.w3.org/2000/svg" width="132" height="91.409" viewBox="0 0 132 91.409"><defs><style>.a{fill:#ffb300;}.b{fill:#f4d43b;}.c{fill:#70b222;}.d{fill:#d82a2a;}.e{fill:#ff7f00;}.f{fill:#30aa29;}.g{fill:#99561a;}.h{fill:#c47e45;}.i{fill:#fff;}.j,.m{fill:#301b09;font-family:Ubuntu-Bold, Ubuntu;font-weight:700;letter-spacing:0.14em;}.j{font-size:14px;}.k{fill:#707070;}.l{fill:#29b749;}.m{font-size:9px;}</style></defs><g transform="translate(-85 -180)"><g transform="translate(129.98 180)"><path class="a" d="M707.562,254.921a21.9,21.9,0,1,1-21.9-21.9,21.9,21.9,0,0,1,21.9,21.9" transform="translate(-659.776 -233.026)"/><path class="b" d="M781.233,263.291s-.1-10.82,3.93-10.964c0,0,2.906-.237,3.3,10.7l-2.052,6.826-2.5.092Z" transform="translate(-752.749 -248.302)"/><path d="M780.954,267.772a.778.778,0,0,1-.722-.488l-2.677-6.658a.79.79,0,0,1-.056-.284,34.389,34.389,0,0,1,.468-5.57c.707-4.02,2.122-6.1,4.2-6.179a1.979,1.979,0,0,1,1.378.589c1.607,1.428,2.527,5.084,2.735,10.865a.8.8,0,0,1-.033.252l-2.051,6.826a.779.779,0,0,1-.717.554l-2.5.092h-.029m-1.9-7.589,2.417,6.012,1.4-.052,1.854-6.169c-.272-7.158-1.633-9.118-2.209-9.629-.056-.05-.245-.2-.245-.2l-.035,0c-2.43.087-3.185,6.7-3.18,10.035" transform="translate(-749.793 -245.347)"/><path class="c" d="M793.712,306a.778.778,0,0,1-.777-.814,21.734,21.734,0,0,1,6.371-13.521.776.776,0,0,1,.541-.219.777.777,0,0,1,.761.615c.06.28,1.437,6.9-1.478,10.958A7.271,7.271,0,0,1,793.8,306a.8.8,0,0,1-.089.005" transform="translate(-762.011 -279.269)"/><path d="M796.892,289.272s2.575,12-6.135,13a21.13,21.13,0,0,1,6.135-13m0-1.557a1.557,1.557,0,0,0-1.082.438A22.582,22.582,0,0,0,789.2,302.2a1.557,1.557,0,0,0,1.555,1.627,1.5,1.5,0,0,0,.177-.01,8.019,8.019,0,0,0,5.872-3.294,12.636,12.636,0,0,0,2-7.518,21.577,21.577,0,0,0-.39-4.057,1.557,1.557,0,0,0-1.522-1.23" transform="translate(-759.055 -276.313)"/><path class="c" d="M773.241,307.556a7.27,7.27,0,0,1-5.528-2.585c-3.2-3.842-2.3-10.541-2.262-10.824a.779.779,0,0,1,1.27-.488,21.734,21.734,0,0,1,7.326,13.028.779.779,0,0,1-.773.869h-.033" transform="translate(-740.141 -280.875)"/><path d="M763.281,291.3a21.13,21.13,0,0,1,7.052,12.522c-8.759-.371-7.052-12.522-7.052-12.522m0-1.556a1.556,1.556,0,0,0-1.541,1.34,21.52,21.52,0,0,0-.1,4.075,12.637,12.637,0,0,0,2.532,7.355,8.018,8.018,0,0,0,6.093,2.864h.066a1.556,1.556,0,0,0,1.546-1.738,22.58,22.58,0,0,0-7.6-13.534,1.556,1.556,0,0,0-1-.363" transform="translate(-737.201 -277.919)"/><line class="b" x2="1.89" y2="0.126" transform="translate(31.338 13.579)"/><path d="M795.631,297.412h-.021l-1.89-.125a.311.311,0,0,1,.041-.621l1.889.125a.311.311,0,0,1-.02.622" transform="translate(-762.403 -283.397)"/><line class="b" x2="1.111" y2="0.262" transform="translate(32.147 10.145)"/><path d="M798.732,281.077a.334.334,0,0,1-.072-.008l-1.111-.262a.311.311,0,1,1,.143-.606l1.111.262a.311.311,0,0,1-.071.614" transform="translate(-765.474 -270.359)"/><line class="b" y1="0.374" x2="1.581" transform="translate(31.031 7.269)"/><path d="M792.266,267.394a.311.311,0,0,1-.072-.614l1.581-.374a.311.311,0,1,1,.143.606l-1.581.374a.315.315,0,0,1-.072.008" transform="translate(-761.236 -259.44)"/><path class="d" d="M809.128,344.987a5.469,5.469,0,1,1-3.143-7.067,5.469,5.469,0,0,1,3.143,7.067" transform="translate(-766.458 -315.762)"/><path d="M801.066,346.31A6.247,6.247,0,1,1,806.9,342.3h0a6.258,6.258,0,0,1-5.838,4.006m.012-10.938a4.691,4.691,0,1,0,1.678.312,4.7,4.7,0,0,0-1.678-.312" transform="translate(-763.508 -312.8)"/><path class="c" d="M826.947,324.33c-.937,0-1.566-1.125-1.821-2.088-.385-1.458-.058-2.591.814-2.822a1.1,1.1,0,0,1,.28-.036c.938,0,1.567,1.125,1.821,2.088.385,1.458.058,2.591-.814,2.822a1.1,1.1,0,0,1-.28.036" transform="translate(-787.365 -301.38)"/><path d="M823.283,317.207c.377,0,.84.641,1.069,1.508.245.93.129,1.768-.26,1.87a.305.305,0,0,1-.082.01c-.377,0-.84-.642-1.069-1.508-.246-.93-.129-1.768.26-1.871a.333.333,0,0,1,.081-.01m0-1.557h0a1.875,1.875,0,0,0-.478.062,2.156,2.156,0,0,0-1.513,1.915,4.8,4.8,0,0,0,.145,1.858c.434,1.645,1.42,2.667,2.573,2.667a1.88,1.88,0,0,0,.479-.062A2.156,2.156,0,0,0,826,320.175a4.8,4.8,0,0,0-.145-1.857c-.435-1.645-1.421-2.667-2.574-2.667" transform="translate(-784.428 -298.424)"/><path class="c" d="M832.429,329.529a1.234,1.234,0,0,1-1.1-.531c-.493-.755.024-1.816,1.285-2.64a3.583,3.583,0,0,1,1.838-.648,1.235,1.235,0,0,1,1.1.531,1.358,1.358,0,0,1-.152,1.573,4.074,4.074,0,0,1-1.133,1.067,3.58,3.58,0,0,1-1.838.648" transform="translate(-792.258 -306.386)"/><path d="M831.523,323.532a.5.5,0,0,1,.444.179c.22.337-.254,1.037-1.059,1.563a2.853,2.853,0,0,1-1.413.521.5.5,0,0,1-.444-.179c-.22-.338.254-1.037,1.06-1.563a2.851,2.851,0,0,1,1.413-.521m0-1.556a4.3,4.3,0,0,0-2.264.774,4.8,4.8,0,0,0-1.352,1.282,2.156,2.156,0,0,0-.16,2.435,2.029,2.029,0,0,0,1.748.884,4.3,4.3,0,0,0,2.264-.774,4.8,4.8,0,0,0,1.351-1.282,2.156,2.156,0,0,0,.16-2.435,2.028,2.028,0,0,0-1.747-.884" transform="translate(-789.324 -303.432)"/><path class="d" d="M754.123,350.462a5.469,5.469,0,1,0,3.143-7.067,5.469,5.469,0,0,0-3.143,7.067" transform="translate(-731.001 -320.096)"/><path d="M756.284,351.786a6.248,6.248,0,1,1,2.234-.416,6.258,6.258,0,0,1-2.234.416m-4.385-4.565a4.69,4.69,0,1,0,2.7-6.061,4.7,4.7,0,0,0-2.7,6.061" transform="translate(-728.051 -317.134)"/><path class="c" d="M765.561,329.8a1.1,1.1,0,0,1-.28-.036c-.871-.23-1.2-1.364-.814-2.822.255-.963.884-2.088,1.821-2.088a1.1,1.1,0,0,1,.28.036c.872.23,1.2,1.364.814,2.822-.255.963-.884,2.088-1.821,2.088Z" transform="translate(-739.353 -305.714)"/><path d="M763.352,322.682a.329.329,0,0,1,.081.01c.39.1.506.94.26,1.87-.229.867-.691,1.509-1.068,1.509a.305.305,0,0,1-.081-.01c-.389-.1-.506-.94-.26-1.87.229-.867.692-1.508,1.069-1.508m0-1.557c-1.153,0-2.139,1.022-2.573,2.668a4.792,4.792,0,0,0-.145,1.857,2.156,2.156,0,0,0,1.512,1.915,1.855,1.855,0,0,0,.479.062c1.153,0,2.139-1.022,2.574-2.667a4.8,4.8,0,0,0,.145-1.858,2.155,2.155,0,0,0-1.512-1.915,1.862,1.862,0,0,0-.479-.062" transform="translate(-736.416 -302.758)"/><path class="c" d="M754.935,335a3.583,3.583,0,0,1-1.839-.648c-1.262-.824-1.779-1.886-1.285-2.64a1.234,1.234,0,0,1,1.1-.532,3.585,3.585,0,0,1,1.838.648,4.076,4.076,0,0,1,1.133,1.067,1.356,1.356,0,0,1,.152,1.573,1.234,1.234,0,0,1-1.1.531" transform="translate(-729.315 -310.72)"/><path d="M749.974,329.008a2.853,2.853,0,0,1,1.413.521c.806.526,1.28,1.226,1.06,1.563a.5.5,0,0,1-.445.179,2.851,2.851,0,0,1-1.413-.521c-.805-.526-1.279-1.226-1.06-1.563a.5.5,0,0,1,.445-.179m0-1.557h0a2.029,2.029,0,0,0-1.748.884,2.156,2.156,0,0,0,.16,2.436,4.8,4.8,0,0,0,1.351,1.283,4.305,4.305,0,0,0,2.264.774,2.03,2.03,0,0,0,1.748-.884,2.157,2.157,0,0,0-.16-2.435,4.8,4.8,0,0,0-1.352-1.282,4.3,4.3,0,0,0-2.264-.775" transform="translate(-726.382 -307.765)"/><path class="c" d="M721.165,301.934a.782.782,0,0,1-.346-.081l-3.435-1.707a.779.779,0,0,1-.411-.516,7.884,7.884,0,0,1,.968-5.333.78.78,0,0,1,1.137-.248,4,4,0,0,1,1,1.166,5.508,5.508,0,0,1,1.868-1.258.778.778,0,0,1,1.022.449,5.947,5.947,0,0,1,.272,2.335,4.546,4.546,0,0,1,.531-.031,4.794,4.794,0,0,1,.733.057.778.778,0,0,1,.632.972,7.1,7.1,0,0,1-3.618,4.11.775.775,0,0,1-.352.084" transform="translate(-701.791 -281.209)"/><path d="M719.269,291.723a5.313,5.313,0,0,1,.007,3.156,3.21,3.21,0,0,1,1.525-.345,3.959,3.959,0,0,1,.614.048A6.329,6.329,0,0,1,718.2,298.2l-3.435-1.707a7.12,7.12,0,0,1,.89-4.77,3.164,3.164,0,0,1,1.178,2.243,4.751,4.751,0,0,1,2.442-2.243m0-1.557a1.554,1.554,0,0,0-.586.115,6.257,6.257,0,0,0-1.443.823,4.281,4.281,0,0,0-.675-.639,1.557,1.557,0,0,0-2.273.5,8.575,8.575,0,0,0-1.046,5.9,1.556,1.556,0,0,0,.821,1.032L717.5,299.6a1.556,1.556,0,0,0,1.4-.006,8.228,8.228,0,0,0,3.185-2.845,6.618,6.618,0,0,0,.832-1.756,1.557,1.557,0,0,0-1.263-1.944,5.842,5.842,0,0,0-.594-.06,6.305,6.305,0,0,0-.332-1.8,1.556,1.556,0,0,0-1.459-1.013" transform="translate(-698.822 -278.254)"/><path class="e" d="M676.65,346.122a2.711,2.711,0,0,1-1.254-.306,2.259,2.259,0,0,1-1.117-1.465c-.472-1.638.052-4.56,1.555-8.685a55.226,55.226,0,0,1,3.547-7.869,4.081,4.081,0,0,1,3.59-2.295,4.4,4.4,0,0,1,2.024.51,4.663,4.663,0,0,1,2.442,2.2,4.294,4.294,0,0,1-.017,3.45,57.888,57.888,0,0,1-4.123,8.323c-2.516,4.128-4.691,6.134-6.648,6.134" transform="translate(-667.96 -306.222)"/><path d="M680.014,323.325a3.614,3.614,0,0,1,1.694.439,3.412,3.412,0,0,1,2.029,4.667c-1.244,3.248-6.237,13.957-10.045,13.957a1.931,1.931,0,0,1-.9-.219c-2.951-1.523,2.45-13.8,4.3-16.932a3.332,3.332,0,0,1,2.92-1.912m0-1.557h0a4.926,4.926,0,0,0-4.26,2.678,56.045,56.045,0,0,0-3.608,8,35.984,35.984,0,0,0-1.453,4.894,9.187,9.187,0,0,0-.118,4.273,3.022,3.022,0,0,0,1.507,1.942,3.482,3.482,0,0,0,1.611.392c1.337,0,2.685-.719,4.118-2.2a24.852,24.852,0,0,0,3.195-4.31,58.78,58.78,0,0,0,4.185-8.45,5.055,5.055,0,0,0,0-4.059,5.4,5.4,0,0,0-2.82-2.58,5.172,5.172,0,0,0-2.351-.581" transform="translate(-665.002 -303.267)"/><path class="c" d="M660.712,302.191a.78.78,0,0,1-.495-.177,7.886,7.886,0,0,1-2.443-4.838.778.778,0,0,1,.757-.883h.022a4.024,4.024,0,0,1,1.48.327,5.513,5.513,0,0,1,.732-2.13.777.777,0,0,1,1.086-.258,5.93,5.93,0,0,1,1.624,1.7,4.662,4.662,0,0,1,1.025-.74.778.778,0,0,1,1.09.394,7.1,7.1,0,0,1-.408,5.461.778.778,0,0,1-.555.423l-3.769.71a.8.8,0,0,1-.144.013" transform="translate(-655.023 -281.374)"/><path d="M658.478,291.933a5.315,5.315,0,0,1,1.908,2.514,3.423,3.423,0,0,1,1.527-1.527,6.332,6.332,0,0,1-.386,4.829l-3.77.709a7.119,7.119,0,0,1-2.167-4.342h.007a3.163,3.163,0,0,1,2.285,1.079,4.751,4.751,0,0,1,.6-3.262m0-1.557a1.556,1.556,0,0,0-1.337.76,6.266,6.266,0,0,0-.655,1.526,4.423,4.423,0,0,0-.888-.1h-.036a1.564,1.564,0,0,0-1.513,1.766,8.575,8.575,0,0,0,2.72,5.334,1.557,1.557,0,0,0,1.277.328l3.77-.71a1.557,1.557,0,0,0,1.111-.847,8.233,8.233,0,0,0,.826-4.19,6.609,6.609,0,0,0-.4-1.9,1.557,1.557,0,0,0-2.18-.789,5.771,5.771,0,0,0-.51.309,6.29,6.29,0,0,0-1.352-1.238,1.555,1.555,0,0,0-.836-.244" transform="translate(-652.069 -278.42)"/><path class="e" d="M671.438,352.844c-1.049,0-2.026-.785-2.987-2.4a25.6,25.6,0,0,1-2.084-4.863,56.783,56.783,0,0,1-2.275-9.543,4.369,4.369,0,0,1,.811-3.346,4.284,4.284,0,0,1,2.587-1.461,4.993,4.993,0,0,1,1.326-.177,4,4,0,0,1,4.022,3.223,57.876,57.876,0,0,1,1.639,8.3c.512,4.285.267,7.263-.728,8.853a2.849,2.849,0,0,1-1.971,1.388,1.99,1.99,0,0,1-.339.029" transform="translate(-659.997 -310.615)"/><path d="M665.865,328.875a3.247,3.247,0,0,1,3.274,2.661c1.044,3.61,3.85,16.816-.445,17.557a1.213,1.213,0,0,1-.207.018c-3.195,0-6.168-12.58-6.573-16.118a3.274,3.274,0,0,1,2.792-3.957,4.1,4.1,0,0,1,1.159-.161m0-1.557v0h0a5.8,5.8,0,0,0-1.492.194,5.032,5.032,0,0,0-3.029,1.736,5.125,5.125,0,0,0-.977,3.922,57.722,57.722,0,0,0,2.31,9.7,26.357,26.357,0,0,0,2.154,5.016,7.829,7.829,0,0,0,1.429,1.832,3.3,3.3,0,0,0,2.227.95,2.805,2.805,0,0,0,.472-.04,3.644,3.644,0,0,0,2.5-1.743c1.107-1.769,1.382-4.83.841-9.359a58.712,58.712,0,0,0-1.664-8.423,4.8,4.8,0,0,0-4.769-3.785" transform="translate(-657.045 -307.66)"/><path class="f" d="M671.221,389.021h-13.8l-9.08-20.858h46.386l-9.132,20.91-9.443-1.972Z" transform="translate(-647.562 -339.989)"/><path d="M682.639,386.9a.783.783,0,0,1-.159-.017l-9.217-1.924-4.714,1.836a.781.781,0,0,1-.282.054h-13.8a.778.778,0,0,1-.714-.468l-9.08-20.858a.778.778,0,0,1,.714-1.089h46.385a.779.779,0,0,1,.713,1.09l-9.132,20.91a.779.779,0,0,1-.713.467m-27.664-1.609h13.145l4.793-1.867a.781.781,0,0,1,.442-.036l8.824,1.842,8.4-19.24H646.573Z" transform="translate(-644.607 -337.034)"/><path d="M777.69,468.031a.777.777,0,0,1-.525-.2L766,457.616a.778.778,0,0,1,.243-1.3l2.556-1a.779.779,0,0,1,.442-.037l9.443,1.972a.778.778,0,0,1,.616.832l-.83,9.235a.777.777,0,0,1-.775.709m-9.72-10.719,9.085,8.307.628-6.981-8.539-1.783Z" transform="translate(-740.488 -408.934)"/><path class="g" d="M681.826,435.178a9.028,9.028,0,1,1-9.028-9.028,9.029,9.029,0,0,1,9.028,9.028" transform="translate(-659.775 -385.887)"/><path d="M669.843,442.029a9.806,9.806,0,1,1,9.806-9.806,9.817,9.817,0,0,1-9.806,9.806m0-18.056a8.25,8.25,0,1,0,8.25,8.25,8.26,8.26,0,0,0-8.25-8.25" transform="translate(-656.82 -382.932)"/><path class="h" d="M698.079,457.241a3.217,3.217,0,1,1-3.217-3.216,3.217,3.217,0,0,1,3.217,3.216" transform="translate(-681.838 -407.951)"/><path d="M691.906,458.281a4,4,0,1,1,3.995-4,4,4,0,0,1-3.995,4m0-6.434a2.439,2.439,0,1,0,2.438,2.438,2.441,2.441,0,0,0-2.438-2.438" transform="translate(-678.883 -404.995)"/><path class="i" d="M848.932,366.208l5.708-2.1,4.67-11.622h6.952" transform="translate(-806.334 -327.58)"/><path d="M845.975,364.032a.778.778,0,0,1-.269-1.509l5.383-1.982,4.541-11.3a.778.778,0,0,1,.722-.488H863.3a.778.778,0,1,1,0,1.557h-6.427L852.4,361.442a.776.776,0,0,1-.453.44l-5.707,2.1a.785.785,0,0,1-.269.048" transform="translate(-803.377 -324.624)"/></g><text class="j" transform="translate(151 254.534)"><tspan x="-65.065" y="0">DE MI</tspan><tspan class="k" y="0"> </tspan><tspan class="l" y="0">TIERRITA</tspan></text><text class="m" transform="translate(151 269.409)"><tspan x="-45.99" y="0">SIEMPRE FRESCO</tspan></text></g></svg>